# xmcd
#
# Track frame offsets:
#	150
#	18205
#	32997
#	48604
#	53899
#	73871
#	79218
#	98724
#	118501
#	133569
#	149084
#	162936
#
# Disc length: 2454 seconds
#
# Revision: 1
# Processed by: cddbd v1.4PL0 Copyright (c) Steve Scherf et al.
# Submitted via: audiograbber 1.82.02
#
DISCID=ab09940c
DTITLE=Steve Collom - Soul Companion
DYEAR=1900
DGENRE=
TTITLE0=Keeper
TTITLE1=Forever
TTITLE2=Lost for Words
TTITLE3=Bass Thing (Instrumental)
TTITLE4=Like You Jesus
TTITLE5=Like You Jesus (Instrumental)
TTITLE6=Soul Companion
TTITLE7=My Hope
TTITLE8=I Can Feel It
TTITLE9=I Know
TTITLE10=Catch a Star
TTITLE11=Missing You (Instrumental)
EXTD=
EXTT0=
EXTT1=
EXTT2=
EXTT3=
EXTT4=
EXTT5=
EXTT6=
EXTT7=
EXTT8=
EXTT9=
EXTT10=
EXTT11=
PLAYORDER=
